#N canvas 574 155 621 542 10;
#X obj 8 9 cnv 15 100 60 empty empty empty 20 12 0 14 -195568 -66577
0;
#N canvas 619 425 450 300 gemwin 0;
#X obj 132 136 gemwin;
#X obj 67 89 outlet;
#X obj 67 10 inlet;
#X msg 67 70 set destroy;
#X msg 198 112 destroy;
#X msg 156 71 set create;
#X obj 67 41 route create;
#X obj 237 -29 gemmouse;
#X obj 270 1 tgl 15 0 empty empty empty 17 7 0 10 -262144 -1 -1 0 1
;
#X obj 270 24 sel 1;
#X msg 18 -16 0;
#X obj 135 -35 / 800;
#X obj 70 -35 s mx;
#X msg -70 119 reset \, fullscreen 0 \, create \, 1;
#X connect 2 0 6 0;
#X connect 3 0 1 0;
#X connect 4 0 0 0;
#X connect 5 0 1 0;
#X connect 6 0 3 0;
#X connect 6 0 13 0;
#X connect 6 0 10 0;
#X connect 6 1 5 0;
#X connect 6 1 4 0;
#X connect 7 0 11 0;
#X connect 7 3 8 0;
#X connect 8 0 9 0;
#X connect 9 0 6 0;
#X connect 10 0 8 0;
#X connect 11 0 12 0;
#X connect 13 0 0 0;
#X restore 13 48 pd gemwin;
#X msg 13 26 create;
#X text 9 5 Create window:;
#X obj 108 461 pix_texture;
#X obj 178 42 gemhead;
#X msg 220 90 device 0;
#N canvas 166 121 570 420 device 0;
#X obj 204 60 cnv 20 20 20 empty \$0-open-canvas 0 4 10 0 16 -233017
-1 0;
#X obj 60 61 hradio 18 1 0 8 empty empty empty 0 -6 0 8 -225271 -1
-1 0;
#X obj 60 13 inlet;
#X msg 160 254 label \$1;
#X obj 160 232 makefilename %d;
#X obj 60 108 int;
#X obj 60 337 outlet;
#X obj 160 277 send \$0-open-canvas;
#X msg 130 170 device \$1;
#X obj 60 130 t b f;
#X obj 130 192 t a a;
#X obj 130 298 list prepend set;
#X obj 130 320 list trim;
#X obj 160 211 route device;
#X obj 130 116 loadbang;
#X msg 130 138 0;
#X connect 1 0 5 0;
#X connect 2 0 1 0;
#X connect 3 0 7 0;
#X connect 4 0 3 0;
#X connect 5 0 9 0;
#X connect 8 0 10 0;
#X connect 9 0 6 0;
#X connect 9 1 8 0;
#X connect 10 0 11 0;
#X connect 10 1 13 0;
#X connect 11 0 12 0;
#X connect 12 0 6 0;
#X connect 13 0 4 0;
#X connect 14 0 15 0;
#X connect 15 0 8 0;
#X coords 0 -1 1 1 165 20 1 60 60;
#X restore 220 66 pd device;
#X obj 178 117 pix_video;
#X obj 178 167 t a a;
#X obj 108 184 separator;
#X obj 239 184 separator;
#X floatatom 302 208 5 0 0 0 - - -;
#X obj 108 241 pix_diff;
#X obj 108 277 t a a;
#X obj 108 314 separator;
#X obj 190 294 separator;
#X floatatom 273 318 5 0 0 0 - - -;
#X obj 108 351 pix_diff;
#X obj 239 224 pix_delay;
#X obj 190 334 pix_delay;
#X obj 345 165 loadbang;
#X obj 108 485 rectangle 8 6;
#X msg 352 191 3;
#X msg 345 301 6;
#X obj 178 142 rotateXYZ 0 180 0;
#X obj 113 9 cnv 15 310 20 empty empty empty 20 12 0 14 -261234 -66577
0;
#X text 119 9 To exit fullscreen \, click the middle mouse button;
#X obj 303 511 dac~;
#X obj 367 409 hsl 128 15 0 1 0 0 empty empty empty -2 -8 0 10 -262144
-1 -1 6641 1;
#X obj 232 495 *~;
#X obj 349 495 *~;
#X obj 247 424 * -1;
#X obj 247 468 + 1;
#X floatatom 379 486 5 0 0 0 - - -;
#X floatatom 281 485 5 0 0 0 - - -;
#X obj 452 166 osc~ 200;
#X obj 464 314 pix_blob;
#X floatatom 467 348 5 0 0 0 - - -;
#X floatatom 523 347 5 0 0 0 - - -;
#X obj 526 207 * -1;
#X obj 545 248 + 1;
#X obj 398 364 * -1;
#X obj 364 381 + 1;
#X obj 566 377 sig~;
#X obj 460 480 hsl 128 15 0 1 0 0 empty empty empty -2 -8 0 10 -262144
-1 -1 374 1;
#X obj 537 442 * 1;
#X obj 254 385 *~;
#X obj 422 173 vsl 15 128 0 10 0 0 empty empty empty 0 -9 0 10 -262144
-1 -1 1700 1;
#X floatatom 460 285 5 0 0 0 - - -;
#X connect 1 0 2 0;
#X connect 2 0 1 0;
#X connect 4 0 22 0;
#X connect 5 0 8 0;
#X connect 6 0 8 0;
#X connect 7 0 6 0;
#X connect 8 0 25 0;
#X connect 9 0 10 0;
#X connect 9 1 11 0;
#X connect 10 0 13 0;
#X connect 11 0 19 0;
#X connect 12 0 19 1;
#X connect 13 0 14 0;
#X connect 14 0 15 0;
#X connect 14 1 16 0;
#X connect 15 0 18 0;
#X connect 16 0 20 0;
#X connect 17 0 20 1;
#X connect 18 0 4 0;
#X connect 18 0 37 0;
#X connect 19 0 13 1;
#X connect 20 0 18 1;
#X connect 21 0 23 0;
#X connect 21 0 24 0;
#X connect 23 0 12 0;
#X connect 24 0 17 0;
#X connect 25 0 9 0;
#X connect 29 0 32 0;
#X connect 29 0 34 0;
#X connect 29 0 31 1;
#X connect 30 0 28 0;
#X connect 31 0 28 1;
#X connect 32 0 33 0;
#X connect 33 0 35 0;
#X connect 33 0 30 1;
#X connect 37 1 38 0;
#X connect 37 3 39 0;
#X connect 38 0 42 0;
#X connect 39 0 46 0;
#X connect 42 0 43 0;
#X connect 43 0 29 0;
#X connect 44 0 47 0;
#X connect 45 0 44 0;
#X connect 46 0 45 0;
#X connect 47 0 30 0;
#X connect 47 0 31 0;
#X connect 48 0 47 1;
#X connect 48 0 49 0;
